<?xml version="1.0" encoding="UTF-8"?>
<svg version="1.1" xmlns="http://www.w3.org/2000/svg" width="380" height="344">
<path d="M0 0 C125.4 0 250.8 0 380 0 C380 113.52 380 227.04 380 344 C254.6 344 129.2 344 0 344 C0 230.48 0 116.96 0 0 Z " fill="#0C161E" transform="translate(0,0)"/>
<path d="M0 0 C23.43 0 46.86 0 71 0 C71 23.05116279 71 23.05116279 69.5625 34.4375 C69.36043945 36.1709668 69.36043945 36.1709668 69.15429688 37.93945312 C68.59014829 42.68655711 67.93854142 47.30729292 67 52 C28.06 52 -10.88 52 -51 52 C-51 47.71 -51 43.42 -51 39 C-44.07 39 -37.14 39 -30 39 C-30 34.71 -30 30.42 -30 26 C-34.29 26 -38.58 26 -43 26 C-43 21.71 -43 17.42 -43 13 C-28.81 13 -14.62 13 0 13 C0 8.71 0 4.42 0 0 Z " fill="#0D74B3" transform="translate(164,175)"/>
<path d="M0 0 C20.79 0 41.58 0 63 0 C65.46118347 18.0486788 67 33.92967441 67 52 C28.06 52 -10.88 52 -51 52 C-51 47.71 -51 43.42 -51 39 C-43.74 39 -36.48 39 -29 39 C-29 34.71 -29 30.42 -29 26 C-33.62 26 -38.24 26 -43 26 C-43 21.71 -43 17.42 -43 13 C-28.81 13 -14.62 13 0 13 C0 8.71 0 4.42 0 0 Z " fill="#FCFDFD" transform="translate(168,105)"/>
<path d="M0 0 C23.76 0 47.52 0 72 0 C70.73069067 6.34654665 69.57785184 11.99123392 67.3125 17.9375 C67.05412354 18.61917236 66.79574707 19.30084473 66.52954102 20.00317383 C63.12639554 28.62927982 58.34424259 38.08746178 50.20513916 43.10690308 C47.47327837 44.21332598 45.35152496 44.24032218 42.40527344 44.22705078 C40.72398346 44.22682419 40.72398346 44.22682419 39.00872803 44.22659302 C37.20229828 44.21110916 37.20229828 44.21110916 35.359375 44.1953125 C33.50339691 44.19106766 33.50339691 44.19106766 31.60992432 44.18673706 C28.32848459 44.177442 25.04724246 44.15948705 21.76586914 44.1373291 C18.41424378 44.11683048 15.06260993 44.10789724 11.7109375 44.09765625 C5.14053779 44.07560027 -1.42969275 44.04107232 -8 44 C-8 39.71 -8 35.42 -8 31 C-0.74 31 6.52 31 14 31 C14 26.71 14 22.42 14 18 C9.38 18 4.76 18 0 18 C0 12.06 0 6.12 0 0 Z " fill="#FBFCFC" transform="translate(154,245)"/>
<path d="M0 0 C5.5527106 -0.16135644 11.09719677 -0.30045497 16.65039062 -0.38452148 C18.53608856 -0.41957944 20.42159819 -0.4672419 22.30664062 -0.52807617 C40.00114557 -1.08453655 40.00114557 -1.08453655 45.01953125 3.1171875 C46.67626953 5.05004883 46.67626953 5.05004883 48 7 C48.41233887 7.54873779 48.82467773 8.09747559 49.24951172 8.6628418 C56.58479735 19.21561364 60.24753152 31.61389185 63 44 C39.57 44 16.14 44 -8 44 C-8 39.71 -8 35.42 -8 31 C-0.74 31 6.52 31 14 31 C14 26.71 14 22.42 14 18 C9.38 18 4.76 18 0 18 C0 12.06 0 6.12 0 0 Z " fill="#F9FBFB" transform="translate(164,43)"/>
<path d="M0 0 C8.58 0 17.16 0 26 0 C26 8.08494289 25.6992122 14.82771197 24.375 22.625 C24.20258789 23.65882813 24.03017578 24.69265625 23.85253906 25.7578125 C22.20420211 34.99078481 19.42670706 43.27747294 16 52 C9.4 52 2.8 52 -4 52 C-3.57622241 46.56152088 -3.13857172 41.13135554 -2.5234375 35.7109375 C-1.17706221 23.80440734 -0.4822571 11.97605137 0 0 Z " fill="#0E74B2" transform="translate(253,175)"/>
<path d="M0 0 C6.6 0 13.2 0 20 0 C24.17176664 10.93290567 26.89320264 21.63876902 28.6875 33.1875 C28.81906494 34.01886475 28.95062988 34.85022949 29.08618164 35.70678711 C29.20598389 36.51897705 29.32578613 37.33116699 29.44921875 38.16796875 C29.60910278 39.23954224 29.60910278 39.23954224 29.7722168 40.33276367 C30.1032044 44.20847599 30 48.11018011 30 52 C21.42 52 12.84 52 4 52 C3.896875 48.679375 3.79375 45.35875 3.6875 41.9375 C3.33038826 32.38130068 2.39188975 23.00204164 1.01635742 13.54077148 C0.88592041 12.63915283 0.7554834 11.73753418 0.62109375 10.80859375 C0.5017749 10.02282959 0.38245605 9.23706543 0.25952148 8.42749023 C-0.03924427 5.63292022 0 2.81049507 0 0 Z " fill="#0F74B3" transform="translate(249,105)"/>
<path d="M0 0 C6.6 0 13.2 0 20 0 C28.23789691 16.75504455 35 32.9905224 35 52 C26.42 52 17.84 52 9 52 C8.608125 47.7925 8.21625 43.585 7.8125 39.25 C6.59275921 27.12488351 4.35876872 15.69528102 1 4 C0.67 2.68 0.34 1.36 0 0 Z " fill="#FAFBFC" transform="translate(288,105)"/>
<path d="M0 0 C8.58 0 17.16 0 26 0 C25.29746985 12.92655476 22.57789354 23.80075676 18.0625 35.875 C17.55867798 37.23141602 17.55867798 37.23141602 17.04467773 38.61523438 C13.11653859 48.83694591 13.11653859 48.83694591 10 52 C6.71646737 52.71386134 3.58960418 52.56738488 0.25 52.375 C-0.63816406 52.34792969 -1.52632813 52.32085937 -2.44140625 52.29296875 C-4.63008395 52.22236624 -6.81379568 52.12385527 -9 52 C-8.74605469 50.9584375 -8.49210937 49.916875 -8.23046875 48.84375 C-4.31207905 32.60823678 -1.58978308 16.63157683 0 0 Z " fill="#F9FBFB" transform="translate(297,175)"/>
<path d="M0 0 C23.43 0 46.86 0 71 0 C71 23.05116279 71 23.05116279 69.5625 34.4375 C69.36043945 36.1709668 69.36043945 36.1709668 69.15429688 37.93945312 C68.59014829 42.68655711 67.93854142 47.30729292 67 52 C28.06 52 -10.88 52 -51 52 C-51 47.71 -51 43.42 -51 39 C-44.07 39 -37.14 39 -30 39 C-30 39.33 -30 39.66 -30 40 C-35.94 40.33 -41.88 40.66 -48 41 C-48.33 43.97 -48.66 46.94 -49 50 C-11.38 50 26.24 50 65 50 C65 47.03 65 44.06 65 41 C65.41524501 38.61299408 65.89516206 36.23637571 66.4375 33.875 C68.2857088 23.37717404 68.53699051 12.64921818 69 2 C46.56 2 24.12 2 1 2 C1 5.63 1 9.26 1 13 C0.67 13 0.34 13 0 13 C0 8.71 0 4.42 0 0 Z " fill="#1C6F9E" transform="translate(164,175)"/>
<path d="M0 0 C11.37007205 7.52711474 19.68890265 18.03006954 26 30 C26 30.66 26 31.32 26 32 C21.05 32 16.1 32 11 32 C9.54124203 27.79181343 8.08297764 23.58345692 6.625 19.375 C6.00625 17.59029297 6.00625 17.59029297 5.375 15.76953125 C4.97539062 14.61582031 4.57578125 13.46210937 4.1640625 12.2734375 C3.79748535 11.21560059 3.4309082 10.15776367 3.05322266 9.06787109 C2.01751726 6.051025 1.00389703 3.02756298 0 0 Z " fill="#0F73AE" transform="translate(234,55)"/>
<path d="M0 0 C5.28 0 10.56 0 16 0 C12.09154688 6.76829686 7.9571638 12.96228589 3 19 C2.43667969 19.69867188 1.87335938 20.39734375 1.29296875 21.1171875 C-0.08651031 22.78867308 -1.53709982 24.40101608 -3 26 C-3.66 26 -4.32 26 -5 26 C-5 26.66 -5 27.32 -5 28 C-6.98 28.99 -6.98 28.99 -9 30 C-8.35632801 25.34410593 -7.1475287 21.13051556 -5.625 16.6875 C-5.40239502 16.03322021 -5.17979004 15.37894043 -4.95043945 14.70483398 C-4.30310107 12.8022649 -3.65163546 10.90110161 -3 9 C-2.39369385 7.18821456 -1.78907553 5.37586165 -1.1875 3.5625 C-0.5996875 1.7990625 -0.5996875 1.7990625 0 0 Z " fill="#1072AD" transform="translate(245,245)"/>
<path d="M0 0 C0.05791844 3.12492251 0.09356746 6.24970766 0.125 9.375 C0.14175781 10.26445312 0.15851563 11.15390625 0.17578125 12.0703125 C0.18222656 12.92109375 0.18867188 13.771875 0.1953125 14.6484375 C0.20578613 15.43395996 0.21625977 16.21948242 0.22705078 17.02880859 C0 19 0 19 -2 21 C-2 14.4 -2 7.8 -2 1 C-25.43 1 -48.86 1 -73 1 C-73 5.29 -73 9.58 -73 14 C-87.19 14 -101.38 14 -116 14 C-116 18.29 -116 22.58 -116 27 C-111.71 27 -107.42 27 -103 27 C-103 31.29 -103 35.58 -103 40 C-109.27 40 -115.54 40 -122 40 C-122 39.67 -122 39.34 -122 39 C-116.06 39 -110.12 39 -104 39 C-104.495 34.05 -104.495 34.05 -105 29 C-107.88085938 29.09765625 -107.88085938 29.09765625 -110.76171875 29.1953125 C-113.45101091 28.96064477 -115.54535982 28.09190649 -118 27 C-118.02685938 24.85423363 -118.04633088 22.70837355 -118.0625 20.5625 C-118.07410156 19.36753906 -118.08570312 18.17257813 -118.09765625 16.94140625 C-118 14 -118 14 -117 13 C-115.64905018 12.90731001 -114.29332909 12.88252674 -112.93920898 12.88647461 C-112.07839218 12.88655014 -111.21757538 12.88662567 -110.33067322 12.88670349 C-109.39526199 12.89186478 -108.45985077 12.89702606 -107.49609375 12.90234375 C-106.54307877 12.9037587 -105.59006378 12.90517365 -104.60816956 12.90663147 C-101.55124835 12.91224848 -98.49439923 12.92480384 -95.4375 12.9375 C-93.37044376 12.94251281 -91.30338638 12.94707609 -89.23632812 12.95117188 C-84.15752412 12.96222344 -79.0787743 12.97949945 -74 13 C-74 8.71 -74 4.42 -74 0 C-65.08995488 -0.15337562 -56.17986542 -0.3021772 -47.26961231 -0.4429636 C-43.1320803 -0.50852078 -38.9946009 -0.57606939 -34.85717773 -0.64819336 C-30.86316603 -0.71774368 -26.8691009 -0.78203122 -22.87494469 -0.84269524 C-21.35232158 -0.86674138 -19.82972703 -0.89267272 -18.30716896 -0.92053413 C-16.17202844 -0.95928084 -14.03688409 -0.99127888 -11.90161133 -1.02172852 C-10.6869368 -1.04171402 -9.47226227 -1.06169952 -8.22077942 -1.08229065 C-5.33549045 -1.00857175 -2.79809143 -0.6744719 0 0 Z " fill="#011F35" transform="translate(237,174)"/>
<path d="M0 0 C8.58 0 17.16 0 26 0 C26 12.375 26 12.375 25 17 C24.67 17 24.34 17 24 17 C24 12.05 24 7.1 24 2 C16.74 2 9.48 2 2 2 C2 8.93 2 15.86 2 23 C1.34 23 0.68 23 0 23 C0.02320313 24.30195313 0.04640625 25.60390625 0.0703125 26.9453125 C0.08907942 28.67186924 0.10727863 30.39843221 0.125 32.125 C0.14175781 32.9809375 0.15851563 33.836875 0.17578125 34.71875 C0.21306681 39.56587293 -0.10419357 43.44707905 -2 48 C-1.34 48 -0.68 48 0 48 C0.33 48.66 0.66 49.32 1 50 C3.54941373 50.31241371 6.00361513 50.51303421 8.5625 50.625 C9.27341797 50.66367188 9.98433594 50.70234375 10.71679688 50.7421875 C12.47742425 50.83671783 14.23867728 50.91945817 16 51 C16 51.33 16 51.66 16 52 C9.4 52 2.8 52 -4 52 C-3.57622241 46.56152088 -3.13857172 41.13135554 -2.5234375 35.7109375 C-1.17706221 23.80440734 -0.4822571 11.97605137 0 0 Z " fill="#206791" transform="translate(253,175)"/>
<path d="M0 0 C9.12589383 4.14623944 16.74079055 12.24693727 24 19 C24.88365234 19.81017578 24.88365234 19.81017578 25.78515625 20.63671875 C27 22 27 22 27 24 C22.25764834 25.28925618 18.68828538 25.61175649 14 24 C9.57460418 19.20593053 6.86248052 13.03014768 4.06933594 7.19384766 C2.85469385 4.70189017 1.48330864 2.34130089 0 0 Z " fill="#ECF1F3" transform="translate(267,63)"/>
<path d="M0 0 C4.29 0 8.58 0 13 0 C7.0721894 9.87968433 -1.8922169 16.22469793 -11 23 C-11.66 22.67 -12.32 22.34 -13 22 C-12.09507812 20.49759766 -12.09507812 20.49759766 -11.171875 18.96484375 C-10.36454321 17.62241996 -9.55725381 16.27997068 -8.75 14.9375 C-8.35425781 14.28072266 -7.95851563 13.62394531 -7.55078125 12.94726562 C-4.97597205 8.66295196 -2.46533598 4.3482646 0 0 Z " fill="#F0F6F7" transform="translate(281,245)"/>
<path d="M0 0 C4.62 0 9.24 0 14 0 C14 4.29 14 8.58 14 13 C9.38 13 4.76 13 0 13 C0 8.71 0 4.42 0 0 Z " fill="#E5EAEB" transform="translate(120,276)"/>
<path d="M0 0 C4.62 0 9.24 0 14 0 C14 4.29 14 8.58 14 13 C9.38 13 4.76 13 0 13 C0 8.71 0 4.42 0 0 Z " fill="#E4E9EB" transform="translate(130,74)"/>
<path d="M0 0 C4.29 0 8.58 0 13 0 C13 4.29 13 8.58 13 13 C8.71 13 4.42 13 0 13 C0 8.71 0 4.42 0 0 Z " fill="#0E75B0" transform="translate(87,214)"/>
<path d="M0 0 C4.29 0 8.58 0 13 0 C13 4.29 13 8.58 13 13 C8.71 13 4.42 13 0 13 C0 8.71 0 4.42 0 0 Z " fill="#F2F5F6" transform="translate(91,144)"/>
<path d="M0 0 C6.93 0 13.86 0 21 0 C21 0.33 21 0.66 21 1 C15.06 1.33 9.12 1.66 3 2 C2.67 5.3 2.34 8.6 2 12 C39.95 12 77.9 12 117 12 C117.33 10.68 117.66 9.36 118 8 C118 9.65 118 11.3 118 13 C79.06 13 40.12 13 0 13 C0 8.71 0 4.42 0 0 Z " fill="#2B6F96" transform="translate(113,214)"/>
<path d="M0 0 C1.26263672 0.06574219 1.26263672 0.06574219 2.55078125 0.1328125 C3.87142578 0.21015625 3.87142578 0.21015625 5.21875 0.2890625 C6.53939453 0.35480469 6.53939453 0.35480469 7.88671875 0.421875 C14.45904152 0.78420826 14.45904152 0.78420826 16.71875 1.9140625 C18.96584237 5.35079201 19.18974727 8.9087561 19.71875 12.9140625 C20.04875 13.2440625 20.37875 13.5740625 20.71875 13.9140625 C20.75955783 15.91364614 20.76129356 17.91451504 20.71875 19.9140625 C18.69649806 16.8806846 17.72527476 14.30061761 16.59375 10.8515625 C16.24054688 9.78808594 15.88734375 8.72460938 15.5234375 7.62890625 C14.71875 4.9140625 14.71875 4.9140625 14.71875 2.9140625 C8.11875 2.9140625 1.51875 2.9140625 -5.28125 2.9140625 C-4.9925 4.3578125 -4.70375 5.8015625 -4.40625 7.2890625 C-1.56830236 23.2221114 -1.00034618 38.75561074 -1.28125 54.9140625 C-1.61125 54.9140625 -1.94125 54.9140625 -2.28125 54.9140625 C-2.3313623 54.22594482 -2.38147461 53.53782715 -2.43310547 52.82885742 C-3.76948624 34.46004056 -3.76948624 34.46004056 -5.67138672 16.14331055 C-6.25908644 11.03789097 -6.35200962 6.05424324 -6.28125 0.9140625 C-3.90064007 -0.27624246 -2.6412745 -0.13933329 0 0 Z " fill="#02243D" transform="translate(254.28125,102.0859375)"/>
<path d="M0 0 C1.084021 0.04713135 2.16804199 0.0942627 3.28491211 0.14282227 C5.03964844 0.21533203 5.03964844 0.21533203 6.82983398 0.28930664 C8.67738281 0.37341797 8.67738281 0.37341797 10.56225586 0.45922852 C11.79782227 0.51143555 13.03338867 0.56364258 14.30639648 0.61743164 C17.37107777 0.74759185 20.43547199 0.88257197 23.49975586 1.02172852 C23.49975586 1.35172852 23.49975586 1.68172852 23.49975586 2.02172852 C14.91975586 2.02172852 6.33975586 2.02172852 -2.50024414 2.02172852 C-2.43836914 4.97110352 -2.37649414 7.92047852 -2.31274414 10.95922852 C-2.18044408 25.40546654 -3.98900326 39.8076175 -6.50024414 54.02172852 C-6.83024414 54.02172852 -7.16024414 54.02172852 -7.50024414 54.02172852 C-7.55445637 50.97981988 -7.59401962 47.93888852 -7.62524414 44.89672852 C-7.65038086 43.61282227 -7.65038086 43.61282227 -7.67602539 42.30297852 C-7.6824707 41.46508789 -7.68891602 40.62719727 -7.69555664 39.76391602 C-7.70603027 38.99934082 -7.71650391 38.23476562 -7.72729492 37.44702148 C-7.50024414 35.02172852 -7.50024414 35.02172852 -6.52539062 32.14257812 C-5.42114143 28.78091643 -5.1105968 25.87308758 -4.90258789 22.34594727 C-4.82331055 21.10651367 -4.7440332 19.86708008 -4.66235352 18.59008789 C-4.58823242 17.3094043 -4.51411133 16.0287207 -4.43774414 14.70922852 C-4.28423913 12.15038877 -4.12690578 9.59177477 -3.96508789 7.03344727 C-3.89926514 5.90382568 -3.83344238 4.7742041 -3.765625 3.61035156 C-3.3985263 0.02953509 -3.3985263 0.02953509 0 0 Z " fill="#011F34" transform="translate(255.500244140625,172.978271484375)"/>
<path d="M0 0 C0.33 0 0.66 0 1 0 C1.51139597 3.14408784 2.00696036 6.29048573 2.5 9.4375 C2.64308594 10.31599609 2.78617187 11.19449219 2.93359375 12.09960938 C3.06894531 12.97294922 3.20429688 13.84628906 3.34375 14.74609375 C3.46943359 15.53685303 3.59511719 16.3276123 3.72460938 17.14233398 C4.10385921 21.07772341 4 25.04637883 4 29 C-4.58 29 -13.16 29 -22 29 C-22 24.71 -22 20.42 -22 16 C-21.34 16 -20.68 16 -20 16 C-20 19.63 -20 23.26 -20 27 C-12.74 27 -5.48 27 2 27 C1.855625 24.9375 1.71125 22.875 1.5625 20.75 C1.48128906 19.58984375 1.40007812 18.4296875 1.31640625 17.234375 C1.09815724 14.16669407 1.09815724 14.16669407 0.46875 11.90625 C-0.12788725 9.47992517 -0.09532324 7.24456647 -0.0625 4.75 C-0.05347656 3.85796875 -0.04445313 2.9659375 -0.03515625 2.046875 C-0.02355469 1.37140625 -0.01195312 0.6959375 0 0 Z " fill="#206C9B" transform="translate(275,128)"/>
<path d="M0 0 C14.19 0 28.38 0 43 0 C43 0.33 43 0.66 43 1 C29.47 1 15.94 1 2 1 C2.66 3.97 3.32 6.94 4 10 C5.299375 10.12375 6.59875 10.2475 7.9375 10.375 C10.15234375 10.5859375 10.15234375 10.5859375 12 11 C12.33 11.66 12.66 12.32 13 13 C8.71 13 4.42 13 0 13 C0 8.71 0 4.42 0 0 Z " fill="#1E6E9E" transform="translate(121,188)"/>
<path d="M0 0 C7.08933843 4.69322125 12.46266175 10.62298341 18 17 C17.67 17.66 17.34 18.32 17 19 C16.51789063 18.43410156 16.03578125 17.86820313 15.5390625 17.28515625 C14.90742188 16.55167969 14.27578125 15.81820312 13.625 15.0625 C12.99851563 14.33160156 12.37203125 13.60070312 11.7265625 12.84765625 C10.12252286 10.91619094 10.12252286 10.91619094 8 10 C8 13.3 8 16.6 8 20 C5.93692171 16.90538257 4.75728366 14.03333405 3.4375 10.5625 C2.78587891 8.86287109 2.78587891 8.86287109 2.12109375 7.12890625 C1.26766236 4.74702978 0.53919467 2.46575541 0 0 Z " fill="#186B95" transform="translate(234,55)"/>
<path d="M0 0 C4.29 0 8.58 0 13 0 C13 4.29 13 8.58 13 13 C8.71 13 4.42 13 0 13 C0 8.71 0 4.42 0 0 Z M3.0625 2.625 C1.74933745 5.56030453 1.78308882 7.81863606 2 11 C5.3 11 8.6 11 12 11 C12 7.7 12 4.4 12 1 C7.15803679 0.46929421 7.15803679 0.46929421 3.0625 2.625 Z " fill="#236E97" transform="translate(87,214)"/>
<path d="M0 0 C0.18451025 11.52164009 0.18451025 11.52164009 -1 17 C-1.33 17 -1.66 17 -2 17 C-2 12.05 -2 7.1 -2 2 C-9.26 2 -16.52 2 -24 2 C-24 8.93 -24 15.86 -24 23 C-24.33 23 -24.66 23 -25 23 C-25 15.74 -25 8.48 -25 1 C-21.20835576 0.83280939 -17.41668666 0.66622323 -13.625 0.5 C-12.54476563 0.45230469 -11.46453125 0.40460938 -10.3515625 0.35546875 C-9.3203125 0.31035156 -8.2890625 0.26523438 -7.2265625 0.21875 C-6.27346191 0.17685547 -5.32036133 0.13496094 -4.33837891 0.09179688 C-2.89304218 0.03505783 -1.44644999 0 0 0 Z " fill="#196EA0" transform="translate(279,175)"/>
<path d="M0 0 C0.33 0 0.66 0 1 0 C1.47101841 6.59425767 0.13721689 10.23487765 -3 16 C-5.93774463 16.05390357 -8.87450232 16.0936255 -11.8125 16.125 C-12.64587891 16.14175781 -13.47925781 16.15851563 -14.33789062 16.17578125 C-15.14033203 16.18222656 -15.94277344 16.18867188 -16.76953125 16.1953125 C-17.87711792 16.21102295 -17.87711792 16.21102295 -19.00708008 16.22705078 C-21 16 -21 16 -24 14 C-17.4 14 -10.8 14 -4 14 C-3.525625 12.246875 -3.05125 10.49375 -2.5625 8.6875 C-1.77029018 5.75976807 -0.95928532 2.87785595 0 0 Z " fill="#011C31" transform="translate(273,213)"/>
<path d="M0 0 C6.6 0 13.2 0 20 0 C20 0.66 20 1.32 20 2 C14.06 2 8.12 2 2 2 C2.33 4.31 2.66 6.62 3 9 C3.06460929 11.4784122 3.08611087 13.95835823 3.0625 16.4375 C3.05347656 17.67371094 3.04445312 18.90992188 3.03515625 20.18359375 C3.02355469 21.11300781 3.01195312 22.04242188 3 23 C2.67 23 2.34 23 2 23 C1.66227261 20.29215006 1.32969313 17.58383004 1 14.875 C0.90460938 14.11445312 0.80921875 13.35390625 0.7109375 12.5703125 C0.57558594 11.44882813 0.57558594 11.44882813 0.4375 10.3046875 C0.35371094 9.62390137 0.26992187 8.94311523 0.18359375 8.24169922 C-0.04070773 5.50295433 0 2.74791462 0 0 Z " fill="#1F6996" transform="translate(249,105)"/>
<path d="M0 0 C0.33 0 0.66 0 1 0 C2.91560282 20.77159687 2.91560282 20.77159687 -1 30 C-1.66 30.33 -2.32 30.66 -3 31 C-2.68904855 27.52069315 -2.37595088 24.04158249 -2.0625 20.5625 C-1.93198242 19.10166992 -1.93198242 19.10166992 -1.79882812 17.61132812 C-1.26788872 11.73166588 -0.67324335 5.86510194 0 0 Z " fill="#032237" transform="translate(234,195)"/>
<path d="M0 0 C8.58 0 17.16 0 26 0 C26 0.99 26 1.98 26 3 C17.09 3 8.18 3 -1 3 C-0.67 2.01 -0.34 1.02 0 0 Z " fill="#001A2C" transform="translate(253,157)"/>
<path d="M0 0 C0.33 0 0.66 0 1 0 C0.41030329 11.3904575 -0.64992873 22.67513035 -2 34 C-2.33 34 -2.66 34 -3 34 C-3.02903577 30.89585298 -3.0468107 27.79174091 -3.0625 24.6875 C-3.07087891 23.80642578 -3.07925781 22.92535156 -3.08789062 22.01757812 C-3.09111328 21.17001953 -3.09433594 20.32246094 -3.09765625 19.44921875 C-3.10289307 18.66893311 -3.10812988 17.88864746 -3.11352539 17.0847168 C-3 15 -3 15 -2 12 C-1.69760965 9.13569136 -1.49234231 6.27080066 -1.28125 3.3984375 C-1 1 -1 1 0 0 Z " fill="#1B6692" transform="translate(234,188)"/>
<path d="M0 0 C0.66 0 1.32 0 2 0 C1.34 3.3 0.68 6.6 0 10 C0.99 9.67 1.98 9.34 3 9 C3 8.34 3 7.68 3 7 C5.5 5.375 5.5 5.375 8 4 C6.55215477 7.37830553 4.83667724 9.64961028 2 12 C-0.75 12.75 -0.75 12.75 -3 13 C-2.88557539 11.39504433 -2.75805306 9.79101881 -2.625 8.1875 C-2.55539063 7.29417969 -2.48578125 6.40085937 -2.4140625 5.48046875 C-2 3 -2 3 0 0 Z " fill="#05253A" transform="translate(237,264)"/>
<path d="M0 0 C2.76390737 2.40339772 3.04065919 3.16263678 4 7 C-0.95 7 -5.9 7 -11 7 C-11 6.34 -11 5.68 -11 5 C-5.555 4.505 -5.555 4.505 0 4 C0 2.68 0 1.36 0 0 Z " fill="#1B648D" transform="translate(256,80)"/>
<path d="M0 0 C1.125 3.75 1.125 3.75 0 6 C1.32 4.68 2.64 3.36 4 2 C4.99 2.33 5.98 2.66 7 3 C5.71034824 4.37562854 4.37310707 5.70766393 3 7 C2.34 7 1.68 7 1 7 C1 7.66 1 8.32 1 9 C-0.98 9.99 -0.98 9.99 -3 11 C-2.44894091 7.0507432 -1.61064629 3.65079826 0 0 Z " fill="#1B618A" transform="translate(239,264)"/>
<path d="M0 0 C5.28 0 10.56 0 16 0 C15.01 1.98 14.02 3.96 13 6 C12.67 5.01 12.34 4.02 12 3 C12.33 2.34 12.66 1.68 13 1 C9.27182653 1.06962633 5.65557149 1.23437883 2 2 C-0.28795759 4.35547425 -0.28795759 4.35547425 -1 7 C-1.33 6.34 -1.66 5.68 -2 5 C-1.34 3.35 -0.68 1.7 0 0 Z " fill="#256586" transform="translate(245,245)"/>
<path d="M0 0 C0.66 0.66 1.32 1.32 2 2 C1.9375 3.875 1.9375 3.875 1 6 C-1.5625 8.25 -1.5625 8.25 -4 10 C-4.66 9.67 -5.32 9.34 -6 9 C-4.02 6.03 -2.04 3.06 0 0 Z " fill="#E5EAED" transform="translate(274,258)"/>
<path d="M0 0 C0.33 0 0.66 0 1 0 C1.4390692 8.63502756 1.4390692 8.63502756 -2 13 C-2.99 13.495 -2.99 13.495 -4 14 C-3.52188823 12.22888156 -3.0424722 10.45811517 -2.5625 8.6875 C-2.29566406 7.70136719 -2.02882813 6.71523437 -1.75390625 5.69921875 C-1.21920575 3.78482474 -0.62855462 1.88566385 0 0 Z " fill="#01243B" transform="translate(273,213)"/>
<path d="M0 0 C3.90432869 1.95216435 6.03839944 3.87386607 9 7 C8.34 7 7.68 7 7 7 C6.67 7.99 6.34 8.98 6 10 C4.02 6.7 2.04 3.4 0 0 Z " fill="#D6DEE1" transform="translate(267,63)"/>
<path d="M0 0 C0 3.56958511 -0.86756673 4.7488052 -2.8125 7.6875 C-3.33457031 8.49574219 -3.85664063 9.30398438 -4.39453125 10.13671875 C-4.92433594 10.75160156 -5.45414063 11.36648438 -6 12 C-6.99 12 -7.98 12 -9 12 C-6 8 -3 4 0 0 Z " fill="#032744" transform="translate(254,255)"/>
<path d="M0 0 C1.37478516 0.01740234 1.37478516 0.01740234 2.77734375 0.03515625 C3.69644531 0.04417969 4.61554688 0.05320313 5.5625 0.0625 C6.27277344 0.07410156 6.98304688 0.08570313 7.71484375 0.09765625 C7.71484375 0.42765625 7.71484375 0.75765625 7.71484375 1.09765625 C6.13703125 1.25234375 6.13703125 1.25234375 4.52734375 1.41015625 C0.84053621 2.0749904 -1.25154224 2.98331921 -4.28515625 5.09765625 C-3.16461059 0.13523977 -3.16461059 0.13523977 0 0 Z " fill="#0F719D" transform="translate(249.28515625,245.90234375)"/>
<path d="M0 0 C5.07865169 1.26966292 5.07865169 1.26966292 7 4 C6.67 5.32 6.34 6.64 6 8 C4.02 5.36 2.04 2.72 0 0 Z " fill="#03213A" transform="translate(241,60)"/>
<path d="M0 0 C1.10844919 3.32534757 0.84454356 5.62182575 0 9 C0.66 9.33 1.32 9.66 2 10 C0.02 10.99 0.02 10.99 -2 12 C-1.85904936 10.3745692 -1.71207913 8.74965949 -1.5625 7.125 C-1.48128906 6.22007812 -1.40007812 5.31515625 -1.31640625 4.3828125 C-1 2 -1 2 0 0 Z " fill="#156EA1" transform="translate(241,258)"/>
<path d="M0 0 C0.66 0 1.32 0 2 0 C1.01 2.97 0.02 5.94 -1 9 C-1.33 9 -1.66 9 -2 9 C-2.25 3.375 -2.25 3.375 0 0 Z " fill="#011B31" transform="translate(237,264)"/>
<path d="M0 0 C0.66 0 1.32 0 2 0 C2 1.98 2 3.96 2 6 C1.01 6.33 0.02 6.66 -1 7 C-0.67 4.69 -0.34 2.38 0 0 Z " fill="#0776B3" transform="translate(242,260)"/>
<path d="M0 0 C1.98 0.99 1.98 0.99 4 2 C3.34 3.65 2.68 5.3 2 7 C0 5 0 5 -0.125 2.375 C-0.08375 1.59125 -0.0425 0.8075 0 0 Z " fill="#181F24" transform="translate(232,112)"/>
</svg>
